<?xml version="1.0" encoding="UTF-8" ?>
<!DOCTYPE svg PUBLIC "-//W3C//DTD SVG 1.1//EN" "http://www.w3.org/Graphics/SVG/1.1/DTD/svg11.dtd">
<svg width="187pt" height="180pt" viewBox="0 0 187 180" version="1.1" xmlns="http://www.w3.org/2000/svg">
<g id="#35852dff">
<path fill="#35852d" opacity="1.00" d=" M 81.50 1.85 C 101.26 -0.78 121.87 2.91 139.34 12.58 C 158.72 23.14 174.15 40.95 181.29 61.89 C 187.75 80.49 187.53 101.28 180.71 119.74 C 173.60 139.26 159.29 155.93 141.34 166.30 C 121.58 177.90 97.49 181.66 75.07 177.09 C 53.22 172.75 33.05 160.26 19.66 142.43 C 7.46 126.41 1.08 106.08 2.10 85.96 C 2.87 67.62 9.81 49.67 21.35 35.42 C 36.06 17.00 58.14 4.82 81.50 1.85 M 82.53 5.66 C 51.76 9.06 23.33 29.63 11.46 58.37 C 3.82 76.44 2.92 97.25 8.98 115.90 C 14.66 133.74 26.58 149.39 41.96 159.99 C 57.65 170.93 76.91 176.53 96.02 175.95 C 114.41 175.51 132.65 169.32 147.40 158.30 C 161.88 147.60 173.00 132.31 178.28 115.06 C 184.36 95.70 182.94 74.10 174.36 55.71 C 166.21 37.98 151.75 23.36 134.33 14.64 C 118.46 6.60 100.18 3.55 82.53 5.66 Z" />
<path fill="#35852d" opacity="1.00" d=" M 62.58 38.58 C 61.19 31.61 62.27 24.40 62.64 17.35 C 63.20 24.39 63.30 31.56 62.58 38.58 Z" />
<path fill="#35852d" opacity="1.00" d=" M 96.01 165.64 C 97.50 164.70 99.41 164.57 100.93 165.50 C 99.65 166.59 97.32 166.78 96.01 165.64 Z" />
</g>
<g id="#050605ff">
<path fill="#050605" opacity="1.00" d=" M 82.53 5.66 C 100.18 3.55 118.46 6.60 134.33 14.64 C 151.75 23.36 166.21 37.98 174.36 55.71 C 182.94 74.10 184.36 95.70 178.28 115.06 C 173.00 132.31 161.88 147.60 147.40 158.30 C 132.65 169.32 114.41 175.51 96.02 175.95 C 76.91 176.53 57.65 170.93 41.96 159.99 C 26.58 149.39 14.66 133.74 8.98 115.90 C 2.92 97.25 3.82 76.44 11.46 58.37 C 23.33 29.63 51.76 9.06 82.53 5.66 M 95.10 11.08 C 95.24 17.35 95.04 23.61 95.14 29.87 C 96.47 32.23 99.95 32.41 102.17 31.32 C 103.45 28.14 102.82 24.48 102.71 21.12 C 101.61 19.37 99.22 20.35 97.55 20.13 C 97.92 17.68 96.16 12.62 100.06 12.84 C 100.10 14.51 100.05 16.19 100.27 17.85 C 100.62 19.18 102.09 18.10 102.95 18.21 C 102.97 15.77 102.77 13.33 101.94 11.02 C 99.72 9.95 97.31 10.05 95.10 11.08 M 81.17 11.25 C 80.85 18.50 80.96 25.77 81.11 33.03 C 81.79 32.98 83.14 32.88 83.81 32.83 C 83.92 29.81 83.97 26.79 84.32 23.79 C 84.94 25.04 85.53 26.30 86.12 27.57 C 86.11 28.37 86.10 29.95 86.09 30.74 C 86.53 30.06 87.41 28.71 87.86 28.03 C 87.57 29.38 87.21 30.71 86.82 32.03 C 87.48 32.03 88.81 32.02 89.47 32.02 C 89.06 29.53 88.58 27.05 87.78 24.65 C 87.67 24.25 87.45 23.45 87.34 23.05 C 89.36 19.76 90.20 14.82 86.97 11.99 C 85.51 10.23 83.09 11.22 81.17 11.25 M 108.13 10.98 C 107.92 18.19 107.90 25.41 108.14 32.63 C 110.81 33.14 113.49 33.66 116.17 34.16 C 116.07 33.47 115.86 32.10 115.75 31.41 C 114.18 30.97 112.60 30.54 111.03 30.10 C 111.01 28.03 111.00 25.97 110.99 23.90 C 112.62 23.92 114.25 23.94 115.88 23.95 C 115.55 23.04 115.22 22.12 114.89 21.21 C 113.58 21.07 112.28 20.94 110.98 20.82 C 111.00 18.70 111.03 16.58 111.07 14.46 C 112.77 14.70 114.46 14.93 116.16 15.15 C 116.05 14.46 115.82 13.08 115.70 12.39 C 113.18 11.89 110.66 11.41 108.13 10.98 M 67.96 14.94 C 68.05 22.02 67.94 29.11 68.03 36.19 C 70.83 35.18 76.39 35.82 76.19 31.70 C 74.47 31.92 72.77 32.19 71.07 32.52 C 71.03 30.32 71.01 28.12 71.00 25.91 C 72.34 25.53 73.67 25.15 75.00 24.76 C 75.00 24.02 75.00 22.54 75.01 21.80 C 73.67 22.20 72.33 22.59 71.00 22.99 C 71.00 20.97 71.01 18.94 71.02 16.92 C 73.22 16.13 76.65 16.08 76.22 12.84 C 73.34 12.95 70.60 13.84 67.96 14.94 M 121.23 13.71 L 121.32 14.46 C 120.64 19.95 121.16 25.49 120.96 31.00 C 121.13 32.77 120.33 35.91 123.02 35.93 L 123.79 36.41 C 123.94 34.16 123.84 31.85 124.51 29.66 C 125.60 32.52 124.75 37.82 128.85 38.16 C 129.10 31.77 129.04 25.38 128.97 19.00 C 129.26 17.42 128.06 16.43 127.07 15.43 C 125.25 17.56 126.28 20.82 125.56 23.40 L 125.32 22.51 C 125.12 21.92 124.73 20.75 124.54 20.16 C 124.88 17.64 124.15 14.27 121.23 13.71 M 58.71 24.78 C 57.62 27.94 57.78 31.69 55.57 34.37 C 54.25 30.51 52.94 26.65 51.61 22.80 C 50.65 23.33 48.83 23.52 49.07 25.04 C 49.02 31.59 48.75 38.18 49.31 44.71 C 50.36 45.04 51.23 44.76 51.93 43.86 C 52.21 40.43 51.72 36.95 52.41 33.54 C 53.38 36.34 54.27 39.17 55.34 41.94 C 56.03 41.47 56.71 40.98 57.37 40.47 C 58.61 36.67 59.01 32.62 60.61 28.93 C 60.68 32.21 60.08 35.57 60.93 38.78 C 61.37 38.86 62.25 39.02 62.69 39.10 L 62.58 38.58 C 63.30 31.56 63.20 24.39 62.64 17.35 L 62.71 16.68 C 59.36 17.91 59.74 21.97 58.71 24.78 M 133.90 19.81 C 132.96 25.16 133.46 30.64 133.41 36.05 C 133.22 40.10 136.85 43.76 140.97 43.08 C 140.80 40.16 142.36 35.44 138.23 34.87 C 138.07 36.55 137.92 38.23 137.78 39.92 C 137.34 39.65 136.47 39.11 136.03 38.84 C 136.50 33.45 134.88 27.60 136.93 22.51 C 138.56 25.32 137.04 29.75 140.90 31.00 C 140.99 28.99 141.20 26.97 140.92 24.98 C 140.08 21.89 137.08 19.74 133.90 19.81 M 144.99 25.70 C 144.88 28.80 144.60 31.92 145.00 35.01 C 145.73 37.34 147.46 39.40 147.02 42.00 C 147.30 44.85 145.82 50.15 150.08 50.41 C 150.79 47.36 148.58 42.51 151.99 40.76 C 152.20 37.22 152.44 33.65 151.93 30.13 C 151.43 29.97 150.44 29.64 149.95 29.48 C 149.86 32.28 149.82 35.08 149.79 37.89 C 149.39 37.58 148.60 36.98 148.20 36.68 C 148.14 33.79 148.29 30.90 147.98 28.02 C 148.05 26.28 146.16 26.22 144.99 25.70 M 38.06 32.32 C 37.99 39.30 37.91 46.29 38.08 53.28 C 40.87 52.59 42.74 50.24 45.03 48.68 C 44.99 48.05 44.90 46.80 44.85 46.17 C 43.49 46.89 42.12 47.61 40.76 48.33 C 40.67 46.55 40.50 44.77 40.66 42.99 C 41.75 40.84 45.53 39.83 44.30 36.91 C 43.08 37.43 41.87 37.94 40.65 38.45 C 40.59 36.96 40.60 35.47 40.68 33.98 C 41.81 31.54 45.57 30.80 45.21 27.60 C 42.30 28.24 40.26 30.50 38.06 32.32 M 93.07 41.08 C 91.48 42.59 89.30 43.27 87.56 44.57 C 86.37 46.08 86.83 48.20 86.54 49.99 L 86.97 50.44 C 84.89 52.97 83.57 56.28 85.70 59.25 C 86.38 60.68 86.88 62.25 86.22 63.80 C 85.56 63.50 84.25 62.90 83.60 62.60 C 82.81 60.16 81.35 57.91 79.44 56.19 C 79.11 53.52 79.44 50.85 79.96 48.23 C 81.83 45.60 81.07 41.40 78.67 39.44 C 75.65 38.56 75.89 42.97 74.66 44.71 C 73.87 47.28 68.92 49.49 71.88 52.19 C 73.31 55.70 71.99 60.77 76.17 62.61 C 76.36 63.54 76.57 64.48 76.81 65.40 C 74.96 65.31 73.42 64.46 72.24 63.08 C 73.02 66.88 72.26 70.74 69.95 73.86 L 68.97 74.00 C 68.95 76.40 69.50 78.86 71.59 80.31 C 74.14 82.13 75.04 85.18 76.81 87.62 C 77.95 88.46 79.05 89.34 80.13 90.26 C 81.60 92.63 83.36 95.01 86.11 95.97 L 87.15 95.25 C 86.46 96.03 85.61 96.59 84.59 96.92 C 85.16 98.47 85.57 100.13 86.59 101.46 C 86.29 104.12 86.00 106.78 85.70 109.44 C 83.08 108.37 82.56 105.19 81.31 102.96 C 81.10 106.33 81.21 109.71 81.10 113.08 C 80.24 112.57 79.42 112.01 78.62 111.42 C 77.40 110.41 78.76 108.78 78.82 107.57 C 77.06 107.83 77.19 109.57 76.94 110.93 C 76.38 111.53 75.82 112.12 75.26 112.71 C 76.19 114.33 77.31 116.14 76.20 117.97 C 75.39 117.94 73.77 117.88 72.96 117.85 C 73.25 118.81 73.50 119.77 73.71 120.75 C 73.08 122.53 70.97 122.97 69.51 123.86 C 71.26 124.02 73.00 124.23 74.75 124.35 C 76.40 125.64 78.11 126.84 79.93 127.87 C 85.19 127.38 89.97 130.21 95.09 130.58 C 95.01 142.39 94.75 154.22 95.24 166.01 L 96.01 165.64 C 97.32 166.78 99.65 166.59 100.93 165.50 L 102.03 165.99 C 101.93 164.73 101.83 163.48 101.73 162.22 C 100.49 162.08 99.24 161.95 98.00 161.82 C 97.81 157.97 98.49 154.02 97.54 150.25 C 98.39 150.10 100.08 149.80 100.93 149.64 C 100.96 148.49 101.00 147.34 101.04 146.19 C 100.16 146.09 98.40 145.89 97.52 145.79 C 97.55 141.89 97.69 137.98 97.71 134.08 C 98.43 133.95 99.88 133.69 100.61 133.56 C 100.74 132.95 101.00 131.74 101.13 131.13 C 102.36 130.71 103.61 130.32 104.90 130.09 C 105.37 141.80 104.76 153.52 105.55 165.22 L 106.20 164.68 C 108.00 166.31 110.75 164.00 110.22 161.88 L 110.84 162.04 C 111.13 157.07 112.05 152.10 111.48 147.11 C 110.82 141.18 111.63 134.56 107.58 129.60 L 108.27 129.47 C 109.03 127.36 110.39 125.78 112.80 126.65 C 113.83 125.76 114.86 124.85 115.87 123.93 C 115.33 122.38 115.10 120.76 115.03 119.13 C 114.47 119.29 113.36 119.62 112.80 119.79 C 112.30 116.93 114.51 113.99 113.05 111.34 C 112.08 111.54 111.12 111.75 110.16 111.95 C 109.16 110.35 107.86 108.88 107.29 107.06 C 106.69 103.28 108.48 99.73 109.04 96.06 C 110.47 92.87 110.74 89.32 110.38 85.88 C 109.75 84.26 107.82 84.09 106.48 83.37 C 106.40 82.84 106.24 81.79 106.16 81.27 C 107.64 81.12 110.25 82.55 110.71 80.43 C 110.41 75.89 114.24 72.92 116.32 69.32 C 117.38 67.07 120.27 67.91 122.26 67.50 C 125.17 68.57 127.72 66.80 128.16 63.84 C 125.53 63.98 121.84 62.20 119.82 64.08 C 117.54 64.18 115.25 64.26 112.97 64.40 L 113.50 64.66 C 111.04 66.14 108.88 68.43 105.81 68.49 C 105.79 66.55 105.84 64.60 105.95 62.67 L 107.08 62.78 C 106.96 62.58 106.71 62.19 106.59 61.99 C 107.60 60.82 108.42 59.50 109.01 58.06 C 107.54 57.62 106.07 57.18 104.61 56.70 C 102.84 55.35 100.56 56.08 100.00 58.25 L 100.58 59.48 C 99.62 61.17 98.74 62.90 97.95 64.68 C 97.51 65.08 96.62 65.89 96.18 66.29 C 92.99 64.31 93.43 60.16 92.65 56.98 C 94.51 54.72 93.96 51.77 93.87 49.09 C 95.34 47.50 97.12 46.06 97.92 43.99 C 98.41 41.39 97.96 38.74 97.77 36.14 C 94.58 35.36 94.51 39.26 93.07 41.08 M 51.30 73.26 C 53.17 73.85 55.09 73.04 56.98 72.89 L 57.00 73.87 C 55.24 73.46 53.81 74.22 52.58 75.42 C 52.70 75.91 52.93 76.89 53.05 77.38 L 52.27 78.02 L 52.56 76.34 C 52.00 75.64 51.43 74.94 50.86 74.24 C 51.35 84.63 50.56 95.04 51.28 105.41 C 51.24 106.81 52.24 107.97 52.88 109.15 C 54.56 110.26 59.09 111.18 59.01 108.12 C 59.06 96.48 58.94 84.84 59.05 73.20 C 58.29 72.45 57.49 71.74 56.67 71.06 C 54.58 70.48 52.97 72.41 51.30 73.26 M 129.99 70.94 C 130.35 71.82 129.41 75.00 130.88 74.55 C 131.12 74.83 131.62 75.39 131.87 75.66 C 133.57 76.43 132.81 78.56 133.03 80.00 C 133.05 89.33 132.84 98.66 133.14 107.99 C 132.83 109.68 133.54 110.31 135.27 109.86 C 136.28 108.44 135.93 106.60 136.03 104.97 C 135.88 94.35 136.18 83.72 135.89 73.11 C 134.81 71.01 132.02 71.08 129.99 70.94 M 141.07 73.00 C 140.94 78.65 140.97 84.29 141.05 89.93 C 141.65 90.63 142.27 91.32 142.98 91.92 C 143.81 91.95 145.45 92.01 146.27 92.03 C 145.60 95.89 146.18 99.87 145.96 103.78 C 145.47 103.82 144.49 103.92 144.00 103.96 C 144.03 101.23 143.99 98.50 143.85 95.77 C 143.14 95.72 141.72 95.62 141.01 95.56 C 141.59 99.47 139.26 105.20 143.45 107.62 C 145.65 108.12 148.88 106.67 148.88 104.09 C 149.12 99.55 149.13 94.97 148.76 90.43 C 147.74 88.74 145.88 87.93 143.94 88.40 C 144.15 84.85 143.94 81.30 144.00 77.74 C 145.68 78.01 147.36 78.28 149.05 78.55 C 149.01 77.67 148.93 75.91 148.89 75.04 C 146.30 74.28 143.69 73.61 141.07 73.00 M 37.98 86.12 C 38.53 86.35 39.63 86.83 40.18 87.07 C 41.06 84.47 40.75 81.69 40.75 78.99 C 41.54 78.57 43.13 77.71 43.93 77.28 L 43.37 78.32 C 42.72 81.61 43.04 84.98 43.07 88.31 C 41.45 88.71 39.06 88.18 38.22 90.03 C 37.78 94.81 37.91 99.65 38.28 104.43 C 38.98 105.26 39.68 106.09 40.38 106.93 L 41.03 106.60 C 41.49 106.81 42.41 107.22 42.86 107.42 C 43.90 107.63 44.93 107.86 45.96 108.12 C 45.94 106.85 45.90 105.59 45.86 104.33 C 44.25 103.81 42.64 103.29 41.03 102.78 C 40.96 99.47 40.86 96.16 40.82 92.85 L 40.89 92.08 C 42.34 92.05 43.79 92.02 45.25 92.00 L 45.31 90.49 L 45.64 91.33 C 46.17 86.88 46.07 82.38 45.91 77.91 C 45.71 76.24 44.95 73.91 42.71 74.19 C 42.95 75.15 43.22 76.11 43.45 77.07 C 42.50 76.93 40.60 76.65 39.65 76.50 C 40.15 76.31 41.16 75.91 41.66 75.72 C 41.56 75.37 41.34 74.69 41.23 74.35 C 36.41 76.38 38.41 82.09 37.98 86.12 M 22.95 89.70 C 26.21 90.25 29.52 90.01 32.79 89.86 C 32.78 89.18 32.77 87.83 32.76 87.15 C 31.97 87.09 30.40 86.98 29.61 86.92 C 27.23 87.27 22.49 85.92 22.95 89.70 M 153.95 86.72 C 153.74 88.05 154.15 90.23 155.95 89.99 C 158.71 90.09 161.48 90.00 164.24 89.97 C 163.87 88.83 163.84 86.77 162.07 87.08 C 159.36 87.00 156.64 86.36 153.95 86.72 M 22.88 91.10 C 22.71 93.44 25.07 94.94 27.11 93.68 C 28.55 94.44 30.77 94.63 32.09 93.54 L 33.15 94.31 C 32.91 93.16 32.62 92.02 32.28 90.89 C 29.15 91.01 26.01 91.02 22.88 91.10 M 154.73 91.14 L 153.82 92.28 C 155.98 92.26 158.16 92.21 160.32 92.40 C 158.22 92.99 156.03 92.74 153.90 92.67 L 154.67 93.89 C 157.68 94.26 160.71 93.93 163.71 93.67 C 163.73 93.07 163.76 91.86 163.78 91.26 C 160.76 91.28 157.74 91.04 154.73 91.14 M 77.42 101.28 C 76.51 102.30 76.71 104.44 78.13 104.91 C 80.11 104.70 79.41 100.16 77.42 101.28 M 70.00 108.25 C 70.34 109.85 71.19 111.22 72.63 112.04 C 72.66 110.68 72.68 109.32 72.68 107.97 C 72.01 108.04 70.67 108.18 70.00 108.25 M 38.20 127.13 C 37.83 133.24 37.90 139.39 38.44 145.48 C 38.81 145.68 39.56 146.09 39.93 146.30 C 40.02 144.00 40.06 141.70 40.12 139.40 C 40.81 139.31 42.20 139.12 42.89 139.02 C 43.53 135.83 44.06 132.44 42.84 129.32 C 41.88 127.69 39.79 127.72 38.20 127.13 M 47.26 128.07 C 47.10 134.07 47.01 140.07 46.21 146.03 C 46.31 148.24 45.04 151.74 47.91 152.62 C 48.23 149.76 48.40 146.90 48.50 144.03 C 49.48 147.22 49.69 150.56 50.15 153.85 C 50.60 154.20 51.51 154.90 51.96 155.24 C 52.29 151.46 51.56 147.73 51.13 143.99 C 52.20 139.56 54.13 134.69 51.76 130.29 C 51.07 128.37 48.94 128.33 47.26 128.07 M 143.21 128.18 C 142.93 131.72 142.96 135.27 143.17 138.81 C 144.46 139.15 145.75 139.49 147.05 139.83 C 146.99 141.64 146.93 143.46 146.78 145.27 C 145.25 144.30 145.89 140.92 143.62 141.36 C 142.69 143.61 142.88 146.57 144.36 148.54 C 146.09 149.18 147.89 147.14 148.52 145.61 C 149.27 142.44 149.28 138.94 147.98 135.91 C 146.99 136.12 146.01 136.34 145.04 136.56 C 145.03 134.52 145.06 132.48 145.18 130.45 C 146.86 131.48 146.56 133.60 146.95 135.25 C 149.88 134.38 148.04 130.26 147.94 128.04 C 146.36 128.10 144.79 128.14 143.21 128.18 M 57.04 128.93 C 57.03 131.94 56.81 134.94 56.39 137.91 C 55.55 144.27 56.30 150.77 55.66 157.09 C 57.24 158.39 59.17 159.14 61.05 159.88 C 62.02 157.27 60.55 155.35 58.08 154.60 C 57.99 151.42 57.99 148.24 58.03 145.06 C 59.31 145.32 60.59 145.58 61.87 145.84 C 61.86 144.71 61.84 143.58 61.81 142.46 C 61.07 142.26 59.61 141.85 58.88 141.65 C 58.91 138.80 58.97 135.96 59.05 133.12 C 60.37 133.04 61.69 132.95 63.01 132.87 C 62.96 131.63 62.91 130.39 62.86 129.16 C 60.92 129.07 58.98 128.99 57.04 128.93 M 124.12 129.12 C 123.81 134.40 123.96 139.68 124.39 144.95 L 125.14 144.75 L 125.24 145.75 C 125.03 150.18 124.84 154.62 125.22 159.05 C 126.89 160.88 129.35 158.57 131.07 157.82 C 132.34 156.05 130.68 154.14 128.65 154.97 C 128.33 154.55 127.67 153.71 127.35 153.29 L 127.12 153.56 C 127.04 150.99 127.00 148.43 126.97 145.87 C 127.97 145.51 128.98 145.15 129.99 144.79 C 130.00 144.04 130.02 142.55 130.03 141.80 C 129.22 141.85 127.61 141.95 126.80 141.99 C 127.06 140.03 126.76 138.07 126.48 136.14 C 126.35 135.38 126.10 133.87 125.97 133.11 C 127.72 132.77 129.91 132.89 130.52 130.76 C 129.24 128.25 126.41 129.05 124.12 129.12 M 133.88 128.97 C 133.15 133.24 133.85 137.56 134.19 141.83 C 134.91 143.32 136.73 142.91 138.05 143.20 C 138.11 145.92 138.14 148.64 137.90 151.35 C 136.44 150.09 136.83 147.96 136.46 146.25 C 136.15 145.94 135.52 145.31 135.21 144.99 C 133.33 147.20 134.38 150.41 134.90 152.97 C 135.48 155.95 139.66 154.18 139.92 152.00 C 140.15 148.40 140.19 144.76 139.85 141.16 C 139.45 139.34 137.47 139.39 136.02 139.16 C 135.98 136.66 135.93 134.15 136.07 131.65 C 137.95 133.45 136.27 137.16 139.18 138.21 C 139.64 135.54 139.70 132.76 138.86 130.16 C 138.02 128.12 135.53 129.24 133.88 128.97 M 66.41 130.26 C 65.74 135.55 66.24 140.91 65.93 146.23 C 66.70 146.16 68.25 146.04 69.02 145.98 L 68.98 146.99 C 68.14 146.94 66.48 146.82 65.64 146.76 C 65.18 151.44 64.82 156.15 65.11 160.85 C 65.55 161.22 66.43 161.95 66.87 162.32 C 67.20 158.04 67.53 153.75 68.05 149.49 C 69.18 148.88 70.67 148.39 70.91 146.93 C 72.47 142.01 72.48 136.60 71.04 131.65 C 69.65 131.65 68.27 131.65 66.88 131.66 C 68.13 131.39 69.38 131.12 70.63 130.85 C 69.72 129.71 67.55 129.39 66.41 130.26 M 77.17 129.76 C 75.67 140.48 74.68 151.28 73.43 162.03 C 73.05 163.64 74.47 164.32 75.86 164.25 C 75.97 160.47 76.81 156.75 76.97 152.98 C 77.18 151.48 76.71 149.71 77.84 148.49 C 78.19 153.28 77.76 158.11 78.38 162.89 C 78.26 164.53 79.53 165.38 81.05 165.41 C 81.09 161.54 80.86 157.67 80.38 153.82 C 79.45 145.98 80.81 137.90 78.91 130.17 C 78.48 130.07 77.60 129.86 77.17 129.76 M 85.10 130.15 C 84.80 142.12 84.96 154.10 84.98 166.07 C 85.50 166.05 86.53 166.02 87.05 166.00 C 87.22 161.25 86.74 156.47 87.42 151.74 C 88.26 156.45 88.59 161.22 89.17 165.96 C 89.74 166.10 90.87 166.38 91.43 166.52 C 91.38 161.65 90.90 156.81 90.09 152.01 C 90.97 144.75 92.69 136.62 88.96 129.87 C 87.67 129.96 86.38 130.06 85.10 130.15 M 114.17 129.90 C 114.26 133.61 114.75 137.29 115.04 140.99 C 115.29 148.30 114.62 155.73 116.07 162.95 C 116.56 163.00 117.54 163.11 118.03 163.16 C 118.25 160.61 117.26 157.68 118.68 155.38 C 119.36 157.75 118.15 162.66 122.05 162.19 C 122.01 156.10 120.92 150.07 121.00 143.98 C 120.98 139.36 120.82 134.71 120.11 130.14 C 119.57 130.07 118.49 129.92 117.94 129.84 C 117.92 134.26 118.89 138.62 118.63 143.04 C 118.07 138.87 117.46 134.69 116.49 130.59 C 115.91 130.42 114.75 130.07 114.17 129.90 Z" />
<path fill="#050605" opacity="1.00" d=" M 97.53 22.36 C 101.53 22.11 99.83 26.64 100.09 29.14 C 95.96 29.88 98.00 24.76 97.53 22.36 Z" />
<path fill="#050605" opacity="1.00" d=" M 54.25 76.42 C 54.67 76.26 55.51 75.95 55.92 75.80 C 56.04 85.95 56.06 96.10 55.92 106.25 C 54.79 105.47 53.71 104.50 54.03 102.97 C 54.12 94.12 53.72 85.24 54.25 76.42 Z" />
<path fill="#050605" opacity="1.00" d=" M 42.56 89.29 C 46.57 89.27 39.25 92.82 39.17 90.36 C 40.15 89.64 41.28 89.28 42.56 89.29 Z" />
<path fill="#050605" opacity="1.00" d=" M 40.16 104.07 C 43.13 102.46 40.41 107.33 40.16 104.07 Z" />
<path fill="#050605" opacity="1.00" d=" M 143.12 105.18 C 143.87 103.84 147.10 105.40 144.87 106.16 C 144.43 106.06 143.56 105.87 143.12 105.78 L 143.12 105.18 Z" />
<path fill="#050605" opacity="1.00" d=" M 49.23 131.29 C 51.13 133.82 50.78 137.80 49.16 140.37 C 48.91 137.35 48.96 134.31 49.23 131.29 Z" />
</g>
<g id="#276221ff">
<path fill="#276221" opacity="1.00" d=" M 95.10 11.08 C 97.31 10.05 99.72 9.95 101.94 11.02 C 102.77 13.33 102.97 15.77 102.95 18.21 C 102.09 18.10 100.62 19.18 100.27 17.85 C 100.05 16.19 100.10 14.51 100.06 12.84 C 96.16 12.62 97.92 17.68 97.55 20.13 C 99.22 20.35 101.61 19.37 102.71 21.12 C 102.82 24.48 103.45 28.14 102.17 31.32 C 99.95 32.41 96.47 32.23 95.14 29.87 C 95.04 23.61 95.24 17.35 95.10 11.08 M 97.53 22.36 C 98.00 24.76 95.96 29.88 100.09 29.14 C 99.83 26.64 101.53 22.11 97.53 22.36 Z" />
<path fill="#276221" opacity="1.00" d=" M 58.71 24.78 C 59.74 21.97 59.36 17.91 62.71 16.68 L 62.64 17.35 C 62.27 24.40 61.19 31.61 62.58 38.58 L 62.69 39.10 C 62.25 39.02 61.37 38.86 60.93 38.78 C 60.08 35.57 60.68 32.21 60.61 28.93 C 59.01 32.62 58.61 36.67 57.37 40.47 C 56.71 40.98 56.03 41.47 55.34 41.94 C 54.27 39.17 53.38 36.34 52.41 33.54 C 51.72 36.95 52.21 40.43 51.93 43.86 C 51.23 44.76 50.36 45.04 49.31 44.71 C 48.75 38.18 49.02 31.59 49.07 25.04 C 48.83 23.52 50.65 23.33 51.61 22.80 C 52.94 26.65 54.25 30.51 55.57 34.37 C 57.78 31.69 57.62 27.94 58.71 24.78 M 49.82 24.44 C 49.64 28.97 49.85 33.50 49.74 38.03 C 49.78 39.82 49.56 41.76 50.58 43.34 C 51.07 38.55 50.57 33.73 51.02 28.93 C 50.84 27.45 51.93 24.97 49.82 24.44 Z" />
</g>
<g id="#21551cff">
<path fill="#21551c" opacity="1.00" d=" M 81.17 11.25 C 83.09 11.22 85.51 10.23 86.97 11.99 C 90.20 14.82 89.36 19.76 87.34 23.05 C 87.45 23.45 87.67 24.25 87.78 24.65 C 87.20 25.61 86.65 26.59 86.12 27.57 C 85.53 26.30 84.94 25.04 84.32 23.79 C 83.97 26.79 83.92 29.81 83.81 32.83 C 83.14 32.88 81.79 32.98 81.11 33.03 C 80.96 25.77 80.85 18.50 81.17 11.25 M 84.07 13.75 C 83.99 16.20 83.98 18.66 84.00 21.11 C 84.50 20.81 85.51 20.21 86.01 19.91 C 85.60 17.84 87.10 14.12 84.07 13.75 Z" />
<path fill="#21551c" opacity="1.00" d=" M 108.13 10.98 C 110.66 11.41 113.18 11.89 115.70 12.39 C 115.82 13.08 116.05 14.46 116.16 15.15 C 114.46 14.93 112.77 14.70 111.07 14.46 C 111.03 16.58 111.00 18.70 110.98 20.82 C 112.28 20.94 113.58 21.07 114.89 21.21 C 115.22 22.12 115.55 23.04 115.88 23.95 C 114.25 23.94 112.62 23.92 110.99 23.90 C 111.00 25.97 111.01 28.03 111.03 30.10 C 112.60 30.54 114.18 30.97 115.75 31.41 C 115.86 32.10 116.07 33.47 116.17 34.16 C 113.49 33.66 110.81 33.14 108.14 32.63 C 107.90 25.41 107.92 18.19 108.13 10.98 Z" />
<path fill="#21551c" opacity="1.00" d=" M 67.96 14.94 C 70.60 13.84 73.34 12.95 76.22 12.84 C 76.65 16.08 73.22 16.13 71.02 16.92 C 71.01 18.94 71.00 20.97 71.00 22.99 C 72.33 22.59 73.67 22.20 75.01 21.80 C 75.00 22.54 75.00 24.02 75.00 24.76 C 73.67 25.15 72.34 25.53 71.00 25.91 C 71.01 28.12 71.03 30.32 71.07 32.52 C 72.77 32.19 74.47 31.92 76.19 31.70 C 76.39 35.82 70.83 35.18 68.03 36.19 C 67.94 29.11 68.05 22.02 67.96 14.94 Z" />
<path fill="#21551c" opacity="1.00" d=" M 121.23 13.71 C 124.15 14.27 124.88 17.64 124.54 20.16 C 123.43 21.77 122.53 23.65 123.17 25.63 C 124.03 24.70 124.81 23.68 125.32 22.51 L 125.56 23.40 C 125.35 26.42 125.50 29.46 126.31 32.39 C 128.13 26.95 126.25 21.06 127.07 15.43 C 128.06 16.43 129.26 17.42 128.97 19.00 C 129.04 25.38 129.10 31.77 128.85 38.16 C 124.75 37.82 125.60 32.52 124.51 29.66 C 123.84 31.85 123.94 34.16 123.79 36.41 L 123.02 35.93 C 120.80 28.97 122.74 21.56 121.32 14.46 L 121.23 13.71 Z" />
<path fill="#21551c" opacity="1.00" d=" M 133.90 19.81 C 137.08 19.74 140.08 21.89 140.92 24.98 C 141.20 26.97 140.99 28.99 140.90 31.00 C 137.04 29.75 138.56 25.32 136.93 22.51 C 136.47 22.32 135.55 21.93 135.10 21.73 C 134.97 27.20 134.92 32.67 134.96 38.13 C 135.23 38.31 135.76 38.67 136.03 38.84 C 136.47 39.11 137.34 39.65 137.78 39.92 C 137.92 38.23 138.07 36.55 138.23 34.87 C 142.36 35.44 140.80 40.16 140.97 43.08 C 136.85 43.76 133.22 40.10 133.41 36.05 C 133.46 30.64 132.96 25.16 133.90 19.81 Z" />
<path fill="#21551c" opacity="1.00" d=" M 38.06 32.32 C 40.26 30.50 42.30 28.24 45.21 27.60 C 45.57 30.80 41.81 31.54 40.68 33.98 C 40.60 35.47 40.59 36.96 40.65 38.45 C 41.87 37.94 43.08 37.43 44.30 36.91 C 45.53 39.83 41.75 40.84 40.66 42.99 C 40.50 44.77 40.67 46.55 40.76 48.33 C 42.12 47.61 43.49 46.89 44.85 46.17 C 44.90 46.80 44.99 48.05 45.03 48.68 C 42.74 50.24 40.87 52.59 38.08 53.28 C 37.91 46.29 37.99 39.30 38.06 32.32 Z" />
<path fill="#21551c" opacity="1.00" d=" M 38.20 127.13 C 39.79 127.72 41.88 127.69 42.84 129.32 C 44.06 132.44 43.53 135.83 42.89 139.02 C 42.20 139.12 40.81 139.31 40.12 139.40 C 40.06 141.70 40.02 144.00 39.93 146.30 C 39.56 146.09 38.81 145.68 38.44 145.48 C 37.90 139.39 37.83 133.24 38.20 127.13 M 40.10 129.63 C 39.96 131.95 39.99 134.28 40.13 136.60 C 42.08 134.81 42.27 131.32 40.10 129.63 Z" />
<path fill="#21551c" opacity="1.00" d=" M 57.04 128.93 C 58.98 128.99 60.92 129.07 62.86 129.16 C 62.91 130.39 62.96 131.63 63.01 132.87 C 61.69 132.95 60.37 133.04 59.05 133.12 C 58.97 135.96 58.91 138.80 58.88 141.65 C 59.61 141.85 61.07 142.26 61.81 142.46 C 61.84 143.58 61.86 144.71 61.87 145.84 C 60.59 145.58 59.31 145.32 58.03 145.06 C 57.99 148.24 57.99 151.42 58.08 154.60 C 60.55 155.35 62.02 157.27 61.05 159.88 C 59.17 159.14 57.24 158.39 55.66 157.09 C 56.30 150.77 55.55 144.27 56.39 137.91 C 56.81 134.94 57.03 131.94 57.04 128.93 M 58.32 130.10 C 58.53 131.39 59.27 131.61 60.56 130.77 C 60.35 129.47 59.60 129.25 58.32 130.10 Z" />
<path fill="#21551c" opacity="1.00" d=" M 77.17 129.76 C 77.60 129.86 78.48 130.07 78.91 130.17 C 80.81 137.90 79.45 145.98 80.38 153.82 C 80.86 157.67 81.09 161.54 81.05 165.41 C 79.53 165.38 78.26 164.53 78.38 162.89 C 77.76 158.11 78.19 153.28 77.84 148.49 C 76.71 149.71 77.18 151.48 76.97 152.98 C 76.81 156.75 75.97 160.47 75.86 164.25 C 74.47 164.32 73.05 163.64 73.43 162.03 C 74.68 151.28 75.67 140.48 77.17 129.76 Z" />
<path fill="#21551c" opacity="1.00" d=" M 95.09 130.58 C 96.52 130.37 97.94 130.08 99.37 129.83 C 99.81 130.15 100.69 130.80 101.13 131.13 C 99.94 131.81 98.80 132.57 97.70 133.39 C 97.70 133.56 97.70 133.91 97.71 134.08 C 97.69 137.98 97.55 141.89 97.52 145.79 C 97.53 145.94 97.54 146.24 97.55 146.39 C 98.49 146.86 99.44 147.31 100.40 147.76 C 99.52 147.89 97.77 148.17 96.89 148.30 C 97.05 148.79 97.38 149.76 97.54 150.25 C 98.49 154.02 97.81 157.97 98.00 161.82 C 99.24 161.95 100.49 162.08 101.73 162.22 C 101.83 163.48 101.93 164.73 102.03 165.99 L 100.93 165.50 C 99.41 164.57 97.50 164.70 96.01 165.64 L 95.24 166.01 C 94.75 154.22 95.01 142.39 95.09 130.58 Z" />
<path fill="#21551c" opacity="1.00" d=" M 104.90 130.09 C 105.57 129.96 106.91 129.72 107.58 129.60 C 111.63 134.56 110.82 141.18 111.48 147.11 C 112.05 152.10 111.13 157.07 110.84 162.04 L 110.22 161.88 C 110.08 161.84 109.79 161.77 109.64 161.73 C 108.48 162.70 107.34 163.70 106.20 164.68 L 105.55 165.22 C 104.76 153.52 105.37 141.80 104.90 130.09 M 105.76 133.01 C 105.79 137.73 105.67 142.47 106.21 147.17 C 106.72 145.73 107.22 144.27 107.20 142.73 C 108.12 148.22 107.11 153.93 108.68 159.32 C 109.34 150.78 109.36 142.11 107.67 133.67 L 107.89 132.90 C 107.36 132.93 106.29 132.98 105.76 133.01 Z" />
</g>
<g id="#060805ff">
<path fill="#060805" opacity="1.00" d=" M 84.07 13.75 C 87.10 14.12 85.60 17.84 86.01 19.91 C 85.51 20.21 84.50 20.81 84.00 21.11 C 83.98 18.66 83.99 16.20 84.07 13.75 Z" />
<path fill="#060805" opacity="1.00" d=" M 107.20 142.73 C 106.90 139.71 106.63 136.59 107.67 133.67 C 109.36 142.11 109.34 150.78 108.68 159.32 C 107.11 153.93 108.12 148.22 107.20 142.73 Z" />
</g>
<g id="#2c6f25ff">
<path fill="#2c6f25" opacity="1.00" d=" M 121.32 14.46 C 122.74 21.56 120.80 28.97 123.02 35.93 C 120.33 35.91 121.13 32.77 120.96 31.00 C 121.16 25.49 120.64 19.95 121.32 14.46 Z" />
</g>
<g id="#2e7427ff">
<path fill="#2e7427" opacity="1.00" d=" M 125.56 23.40 C 126.28 20.82 125.25 17.56 127.07 15.43 C 126.25 21.06 128.13 26.95 126.31 32.39 C 125.50 29.46 125.35 26.42 125.56 23.40 Z" />
</g>
<g id="#2f7628ff">
<path fill="#2f7628" opacity="1.00" d=" M 123.17 25.63 C 122.53 23.65 123.43 21.77 124.54 20.16 C 124.73 20.75 125.12 21.92 125.32 22.51 C 124.81 23.68 124.03 24.70 123.17 25.63 Z" />
</g>
<g id="#35842dff">
<path fill="#35842d" opacity="1.00" d=" M 135.10 21.73 C 135.55 21.93 136.47 22.32 136.93 22.51 C 134.88 27.60 136.50 33.45 136.03 38.84 C 135.76 38.67 135.23 38.31 134.96 38.13 C 134.92 32.67 134.97 27.20 135.10 21.73 Z" />
</g>
<g id="#143311ff">
<path fill="#143311" opacity="1.00" d=" M 49.82 24.44 C 51.93 24.97 50.84 27.45 51.02 28.93 C 50.57 33.73 51.07 38.55 50.58 43.34 C 49.56 41.76 49.78 39.82 49.74 38.03 C 49.85 33.50 49.64 28.97 49.82 24.44 Z" />
</g>
<g id="#2b6c24ff">
<path fill="#2b6c24" opacity="1.00" d=" M 86.12 27.57 C 86.65 26.59 87.20 25.61 87.78 24.65 C 88.58 27.05 89.06 29.53 89.47 32.02 C 88.81 32.02 87.48 32.03 86.82 32.03 C 87.21 30.71 87.57 29.38 87.86 28.03 C 87.41 28.71 86.53 30.06 86.09 30.74 C 86.10 29.95 86.11 28.37 86.12 27.57 Z" />
</g>
<g id="#153612ff">
<path fill="#153612" opacity="1.00" d=" M 144.99 25.70 C 146.16 26.22 148.05 26.28 147.98 28.02 C 148.29 30.90 148.14 33.79 148.20 36.68 C 148.60 36.98 149.39 37.58 149.79 37.89 C 149.82 35.08 149.86 32.28 149.95 29.48 C 150.44 29.64 151.43 29.97 151.93 30.13 C 152.44 33.65 152.20 37.22 151.99 40.76 C 148.58 42.51 150.79 47.36 150.08 50.41 C 145.82 50.15 147.30 44.85 147.02 42.00 C 147.46 39.40 145.73 37.34 145.00 35.01 C 144.60 31.92 144.88 28.80 144.99 25.70 Z" />
</g>
<g id="#193611ff">
<path fill="#193611" opacity="1.00" d=" M 93.07 41.08 C 94.51 39.26 94.58 35.36 97.77 36.14 C 97.96 38.74 98.41 41.39 97.92 43.99 C 97.12 46.06 95.34 47.50 93.87 49.09 C 93.96 51.77 94.51 54.72 92.65 56.98 L 91.82 56.25 C 90.45 55.31 89.00 54.48 87.58 53.62 C 87.90 53.11 88.22 52.60 88.54 52.08 C 88.15 51.67 87.37 50.85 86.97 50.44 L 86.54 49.99 C 86.83 48.20 86.37 46.08 87.56 44.57 C 89.30 43.27 91.48 42.59 93.07 41.08 Z" />
</g>
<g id="#163612ff">
<path fill="#163612" opacity="1.00" d=" M 74.66 44.71 C 75.89 42.97 75.65 38.56 78.67 39.44 C 81.07 41.40 81.83 45.60 79.96 48.23 C 79.83 46.76 79.68 45.30 79.50 43.83 C 76.54 46.21 74.03 49.07 71.88 52.19 C 68.92 49.49 73.87 47.28 74.66 44.71 Z" />
</g>
<g id="#3c3411ff">
<path fill="#3c3411" opacity="1.00" d=" M 71.88 52.19 C 74.03 49.07 76.54 46.21 79.50 43.83 C 79.68 45.30 79.83 46.76 79.96 48.23 C 79.44 50.85 79.11 53.52 79.44 56.19 C 77.71 57.95 76.48 60.13 76.17 62.61 C 71.99 60.77 73.31 55.70 71.88 52.19 Z" />
</g>
<g id="#383811ff">
<path fill="#383811" opacity="1.00" d=" M 85.70 59.25 C 83.57 56.28 84.89 52.97 86.97 50.44 C 87.37 50.85 88.15 51.67 88.54 52.08 C 88.22 52.60 87.90 53.11 87.58 53.62 C 89.00 54.48 90.45 55.31 91.82 56.25 C 91.61 56.59 91.20 57.26 90.99 57.60 C 89.24 58.20 87.47 58.72 85.70 59.25 Z" />
</g>
<g id="#163b11ff">
<path fill="#163b11" opacity="1.00" d=" M 100.00 58.25 C 100.56 56.08 102.84 55.35 104.61 56.70 C 104.06 58.85 105.05 60.57 106.59 61.99 C 106.71 62.19 106.96 62.58 107.08 62.78 L 105.95 62.67 C 105.11 62.57 104.29 62.46 103.46 62.35 C 102.49 60.84 101.39 59.40 100.00 58.25 Z" />
</g>
<g id="#603411ff">
<path fill="#603411" opacity="1.00" d=" M 76.17 62.61 C 76.48 60.13 77.71 57.95 79.44 56.19 C 81.35 57.91 82.81 60.16 83.60 62.60 C 82.99 64.01 82.28 65.38 81.56 66.75 C 80.68 68.05 79.79 69.35 78.72 70.51 C 78.16 70.13 77.04 69.39 76.48 69.01 C 75.69 69.66 74.91 70.30 74.20 71.02 C 73.74 71.64 72.83 72.89 72.37 73.51 C 71.77 73.60 70.55 73.77 69.95 73.86 C 72.26 70.74 73.02 66.88 72.24 63.08 C 73.42 64.46 74.96 65.31 76.81 65.40 C 76.57 64.48 76.36 63.54 76.17 62.61 Z" />
</g>
<g id="#649e24ff">
<path fill="#649e24" opacity="1.00" d=" M 90.99 57.60 C 91.20 57.26 91.61 56.59 91.82 56.25 L 92.65 56.98 C 93.43 60.16 92.99 64.31 96.18 66.29 C 98.63 68.01 101.43 69.17 104.40 69.58 C 104.10 68.39 103.79 67.20 103.48 66.01 C 103.68 65.82 104.08 65.43 104.28 65.24 C 104.66 66.96 105.02 68.68 105.53 70.37 C 105.23 71.36 104.96 72.36 104.69 73.35 C 103.35 71.30 101.58 69.55 99.01 69.30 L 98.98 70.93 C 98.95 71.63 98.87 73.03 98.84 73.73 C 97.79 73.54 96.75 73.35 95.70 73.16 C 95.70 71.22 94.02 70.13 92.34 69.66 C 91.95 69.50 91.16 69.17 90.77 69.01 C 89.85 65.19 91.40 61.43 90.99 57.60 Z" />
</g>
<g id="#245712ff">
<path fill="#245712" opacity="1.00" d=" M 104.61 56.70 C 106.07 57.18 107.54 57.62 109.01 58.06 C 108.42 59.50 107.60 60.82 106.59 61.99 C 105.05 60.57 104.06 58.85 104.61 56.70 Z" />
</g>
<g id="#496311ff">
<path fill="#496311" opacity="1.00" d=" M 85.70 59.25 C 87.47 58.72 89.24 58.20 90.99 57.60 C 91.40 61.43 89.85 65.19 90.77 69.01 C 89.82 69.27 88.87 69.54 87.93 69.83 C 86.45 68.93 84.99 68.03 83.52 67.12 C 83.44 68.20 83.36 69.28 83.29 70.36 C 82.96 69.98 82.32 69.23 82.00 68.86 C 81.89 68.33 81.67 67.27 81.56 66.75 C 82.28 65.38 82.99 64.01 83.60 62.60 C 84.25 62.90 85.56 63.50 86.22 63.80 C 86.88 62.25 86.38 60.68 85.70 59.25 Z" />
</g>
<g id="#325311ff">
<path fill="#325311" opacity="1.00" d=" M 100.00 58.25 C 101.39 59.40 102.49 60.84 103.46 62.35 C 104.29 62.46 105.11 62.57 105.95 62.67 C 105.84 64.60 105.79 66.55 105.81 68.49 C 108.88 68.43 111.04 66.14 113.50 64.66 C 113.79 64.80 114.37 65.07 114.66 65.21 C 113.47 67.40 112.28 69.60 111.04 71.76 C 110.86 71.35 110.50 70.52 110.32 70.11 C 109.11 71.70 108.08 73.43 107.13 75.19 C 106.67 73.55 106.09 71.96 105.53 70.37 C 105.02 68.68 104.66 66.96 104.28 65.24 C 104.08 65.43 103.68 65.82 103.48 66.01 C 103.79 67.20 104.10 68.39 104.40 69.58 C 101.43 69.17 98.63 68.01 96.18 66.29 C 96.62 65.89 97.51 65.08 97.95 64.68 C 99.76 64.29 101.06 63.00 102.02 61.48 C 101.66 60.98 100.94 59.98 100.58 59.48 L 100.00 58.25 Z" />
<path fill="#325311" opacity="1.00" d=" M 92.34 69.66 C 94.02 70.13 95.70 71.22 95.70 73.16 C 93.68 73.24 92.43 71.54 92.34 69.66 Z" />
</g>
<g id="#4e7815ff">
<path fill="#4e7815" opacity="1.00" d=" M 100.58 59.48 C 100.94 59.98 101.66 60.98 102.02 61.48 C 101.06 63.00 99.76 64.29 97.95 64.68 C 98.74 62.90 99.62 61.17 100.58 59.48 Z" />
</g>
<g id="#5d3411ff">
<path fill="#5d3411" opacity="1.00" d=" M 119.82 64.08 C 121.84 62.20 125.53 63.98 128.16 63.84 C 127.72 66.80 125.17 68.57 122.26 67.50 C 121.22 67.22 120.19 66.93 119.17 66.62 C 119.37 65.77 119.59 64.92 119.82 64.08 Z" />
</g>
<g id="#213911ff">
<path fill="#213911" opacity="1.00" d=" M 112.97 64.40 C 115.25 64.26 117.54 64.18 119.82 64.08 C 119.59 64.92 119.37 65.77 119.17 66.62 C 120.19 66.93 121.22 67.22 122.26 67.50 C 120.27 67.91 117.38 67.07 116.32 69.32 C 114.24 72.92 110.41 75.89 110.71 80.43 C 110.05 80.52 108.74 80.70 108.08 80.79 C 107.89 77.46 109.25 74.47 111.04 71.76 C 112.28 69.60 113.47 67.40 114.66 65.21 C 114.37 65.07 113.79 64.80 113.50 64.66 L 112.97 64.40 Z" />
</g>
<g id="#7e4511ff">
<path fill="#7e4511" opacity="1.00" d=" M 78.72 70.51 C 79.79 69.35 80.68 68.05 81.56 66.75 C 81.67 67.27 81.89 68.33 82.00 68.86 C 82.32 69.23 82.96 69.98 83.29 70.36 C 83.10 72.42 83.49 74.46 84.35 76.34 C 84.30 76.79 84.19 77.68 84.13 78.13 C 81.45 76.39 79.38 72.00 75.70 73.27 C 75.37 73.32 74.71 73.43 74.38 73.49 C 74.34 72.87 74.24 71.64 74.20 71.02 C 74.91 70.30 75.69 69.66 76.48 69.01 C 77.04 69.39 78.16 70.13 78.72 70.51 Z" />
</g>
<g id="#598f15ff">
<path fill="#598f15" opacity="1.00" d=" M 83.52 67.12 C 84.99 68.03 86.45 68.93 87.93 69.83 C 88.87 69.54 89.82 69.27 90.77 69.01 C 91.16 69.17 91.95 69.50 92.34 69.66 C 92.43 71.54 93.68 73.24 95.70 73.16 C 96.75 73.35 97.79 73.54 98.84 73.73 C 98.87 73.03 98.95 71.63 98.98 70.93 C 100.83 71.85 102.76 72.61 104.69 73.35 C 104.35 75.33 103.33 77.02 101.83 78.33 C 101.69 79.96 102.18 81.83 101.12 83.24 C 100.21 83.35 99.30 83.39 98.40 83.47 C 98.40 80.03 96.77 77.17 94.04 75.16 C 92.92 73.66 91.74 72.21 90.54 70.77 C 89.86 72.38 89.20 74.00 88.56 75.63 C 87.11 74.14 85.55 72.74 83.77 71.65 C 84.22 75.37 87.74 77.24 90.42 79.30 C 89.99 80.40 89.81 82.16 88.20 81.76 C 87.14 80.96 86.19 80.02 85.21 79.12 C 84.94 78.87 84.40 78.38 84.13 78.13 C 84.19 77.68 84.30 76.79 84.35 76.34 C 83.49 74.46 83.10 72.42 83.29 70.36 C 83.36 69.28 83.44 68.20 83.52 67.12 Z" />
</g>
<g id="#3c5d11ff">
<path fill="#3c5d11" opacity="1.00" d=" M 99.01 69.30 C 101.58 69.55 103.35 71.30 104.69 73.35 C 102.76 72.61 100.83 71.85 98.98 70.93 L 99.01 69.30 Z" />
</g>
<g id="#5b893dff">
<path fill="#5b893d" opacity="1.00" d=" M 107.13 75.19 C 108.08 73.43 109.11 71.70 110.32 70.11 C 110.50 70.52 110.86 71.35 111.04 71.76 C 109.25 74.47 107.89 77.46 108.08 80.79 C 108.74 80.70 110.05 80.52 110.71 80.43 C 110.25 82.55 107.64 81.12 106.16 81.27 C 106.24 81.79 106.40 82.84 106.48 83.37 C 107.82 84.09 109.75 84.26 110.38 85.88 C 110.74 89.32 110.47 92.87 109.04 96.06 C 107.37 95.81 105.45 95.84 104.79 93.92 C 106.34 94.22 107.07 93.71 106.99 92.39 C 105.76 91.98 105.02 92.49 104.79 93.92 C 104.61 94.58 104.26 95.91 104.08 96.57 C 102.26 96.48 100.63 95.85 99.55 94.34 C 100.57 92.39 101.77 90.27 100.43 88.12 C 103.12 84.48 105.34 80.53 107.51 76.56 C 107.41 76.22 107.22 75.53 107.13 75.19 Z" />
</g>
<g id="#4d4635ff">
<path fill="#4d4635" opacity="1.00" d=" M 51.30 73.26 C 52.97 72.41 54.58 70.48 56.67 71.06 C 57.49 71.74 58.29 72.45 59.05 73.20 C 58.94 84.84 59.06 96.48 59.01 108.12 C 59.09 111.18 54.56 110.26 52.88 109.15 C 53.40 109.31 54.44 109.64 54.97 109.80 C 56.05 109.02 56.43 107.78 56.70 106.56 L 54.31 108.75 C 52.45 103.33 54.31 97.59 53.95 92.03 C 54.22 87.11 53.02 82.29 53.05 77.38 C 52.93 76.89 52.70 75.91 52.58 75.42 C 53.81 74.22 55.24 73.46 57.00 73.87 L 56.98 72.89 C 55.09 73.04 53.17 73.85 51.30 73.26 M 54.25 76.42 C 53.72 85.24 54.12 94.12 54.03 102.97 C 53.71 104.50 54.79 105.47 55.92 106.25 C 56.06 96.10 56.04 85.95 55.92 75.80 C 55.51 75.95 54.67 76.26 54.25 76.42 Z" />
<path fill="#4d4635" opacity="1.00" d=" M 160.25 88.12 C 163.22 86.49 160.56 91.38 160.25 88.12 Z" />
<path fill="#4d4635" opacity="1.00" d=" M 29.06 92.81 C 29.64 91.38 30.30 91.36 31.06 92.76 C 30.56 92.77 29.56 92.80 29.06 92.81 Z" />
</g>
<g id="#377611ff">
<path fill="#377611" opacity="1.00" d=" M 88.56 75.63 C 89.20 74.00 89.86 72.38 90.54 70.77 C 91.74 72.21 92.92 73.66 94.04 75.16 C 94.21 76.97 94.88 78.66 95.83 80.20 C 94.87 79.91 93.91 79.63 92.95 79.35 C 92.63 80.00 92.31 80.66 91.99 81.32 C 93.08 81.41 94.18 81.49 95.27 81.59 C 94.36 83.20 92.89 84.22 91.16 84.82 C 91.77 85.19 92.39 85.57 93.01 85.95 C 94.71 84.95 96.36 83.64 98.40 83.47 C 99.30 83.39 100.21 83.35 101.12 83.24 C 102.18 81.83 101.69 79.96 101.83 78.33 C 103.33 77.02 104.35 75.33 104.69 73.35 C 104.96 72.36 105.23 71.36 105.53 70.37 C 106.09 71.96 106.67 73.55 107.13 75.19 C 107.22 75.53 107.41 76.22 107.51 76.56 C 105.34 80.53 103.12 84.48 100.43 88.12 C 99.98 88.72 99.08 89.91 98.63 90.51 C 96.61 89.49 94.46 89.32 92.76 91.07 C 92.65 90.74 92.44 90.07 92.34 89.73 C 92.19 89.50 91.90 89.03 91.75 88.79 C 90.75 88.59 89.73 88.47 88.73 88.25 C 88.37 86.19 88.41 84.02 87.14 82.23 C 86.56 82.36 85.38 82.61 84.80 82.74 C 84.94 81.53 85.08 80.33 85.21 79.12 C 86.19 80.02 87.14 80.96 88.20 81.76 C 89.81 82.16 89.99 80.40 90.42 79.30 C 87.74 77.24 84.22 75.37 83.77 71.65 C 85.55 72.74 87.11 74.14 88.56 75.63 M 91.02 74.26 C 89.02 74.68 90.08 77.92 91.95 77.33 C 93.76 76.79 92.69 73.94 91.02 74.26 Z" />
</g>
<g id="#7a6e55ff">
<path fill="#7a6e55" opacity="1.00" d=" M 129.99 70.94 C 132.02 71.08 134.81 71.01 135.89 73.11 C 136.18 83.72 135.88 94.35 136.03 104.97 C 135.93 106.60 136.28 108.44 135.27 109.86 C 135.34 108.33 134.63 107.70 133.14 107.99 C 132.84 98.66 133.05 89.33 133.03 80.00 C 132.81 78.56 133.57 76.43 131.87 75.66 C 133.00 75.66 133.64 75.12 133.79 74.06 C 133.73 72.47 133.16 72.32 132.07 73.62 C 131.78 73.85 131.18 74.32 130.88 74.55 C 129.41 75.00 130.35 71.82 129.99 70.94 Z" />
<path fill="#7a6e55" opacity="1.00" d=" M 153.95 86.72 C 156.64 86.36 159.36 87.00 162.07 87.08 C 163.84 86.77 163.87 88.83 164.24 89.97 C 161.48 90.00 158.71 90.09 155.95 89.99 C 154.15 90.23 153.74 88.05 153.95 86.72 M 160.25 88.12 C 160.56 91.38 163.22 86.49 160.25 88.12 Z" />
</g>
<g id="#373411ff">
<path fill="#373411" opacity="1.00" d=" M 72.37 73.51 C 72.83 72.89 73.74 71.64 74.20 71.02 C 74.24 71.64 74.34 72.87 74.38 73.49 C 74.71 73.43 75.37 73.32 75.70 73.27 C 76.24 73.53 77.34 74.06 77.88 74.33 C 77.41 75.34 76.90 76.33 76.40 77.32 C 77.89 77.94 79.38 78.56 80.87 79.18 L 80.38 79.82 C 79.69 79.85 78.31 79.92 77.61 79.95 C 77.48 81.51 77.42 83.07 77.44 84.64 C 77.87 84.82 78.72 85.17 79.15 85.35 C 78.37 86.11 77.59 86.86 76.81 87.62 C 75.04 85.18 74.14 82.13 71.59 80.31 C 69.50 78.86 68.95 76.40 68.97 74.00 L 69.95 73.86 C 70.55 73.77 71.77 73.60 72.37 73.51 Z" />
</g>
<g id="#623711ff">
<path fill="#623711" opacity="1.00" d=" M 75.70 73.27 C 79.38 72.00 81.45 76.39 84.13 78.13 C 84.40 78.38 84.94 78.87 85.21 79.12 C 85.08 80.33 84.94 81.53 84.80 82.74 L 83.88 82.88 C 82.29 82.49 80.74 82.00 79.19 81.52 C 79.48 81.10 80.08 80.24 80.38 79.82 L 80.87 79.18 C 79.38 78.56 77.89 77.94 76.40 77.32 C 76.90 76.33 77.41 75.34 77.88 74.33 C 77.34 74.06 76.24 73.53 75.70 73.27 Z" />
</g>
<g id="#363125ff">
<path fill="#363125" opacity="1.00" d=" M 132.07 73.62 C 133.16 72.32 133.73 72.47 133.79 74.06 C 133.36 73.95 132.50 73.73 132.07 73.62 Z" />
</g>
<g id="#97886aff">
<path fill="#97886a" opacity="1.00" d=" M 141.07 73.00 C 143.69 73.61 146.30 74.28 148.89 75.04 C 148.93 75.91 149.01 77.67 149.05 78.55 C 147.36 78.28 145.68 78.01 144.00 77.74 C 143.94 81.30 144.15 84.85 143.94 88.40 L 143.30 89.49 C 142.52 85.06 142.92 80.57 142.79 76.11 C 143.59 76.00 145.21 75.79 146.02 75.68 C 144.99 74.75 143.49 74.47 142.18 74.90 L 142.17 75.49 C 141.97 80.31 142.94 85.33 141.05 89.93 C 140.97 84.29 140.94 78.65 141.07 73.00 Z" />
</g>
<g id="#52a31cff">
<path fill="#52a31c" opacity="1.00" d=" M 91.02 74.26 C 92.69 73.94 93.76 76.79 91.95 77.33 C 90.08 77.92 89.02 74.68 91.02 74.26 Z" />
</g>
<g id="#968869ff">
<path fill="#968869" opacity="1.00" d=" M 130.88 74.55 C 131.18 74.32 131.78 73.85 132.07 73.62 C 132.50 73.73 133.36 73.95 133.79 74.06 C 133.64 75.12 133.00 75.66 131.87 75.66 C 131.62 75.39 131.12 74.83 130.88 74.55 Z" />
</g>
<g id="#9e8f6fff">
<path fill="#9e8f6f" opacity="1.00" d=" M 37.98 86.12 C 38.41 82.09 36.41 76.38 41.23 74.35 C 41.34 74.69 41.56 75.37 41.66 75.72 C 41.16 75.91 40.15 76.31 39.65 76.50 C 40.60 76.65 42.50 76.93 43.45 77.07 L 43.93 77.28 C 43.13 77.71 41.54 78.57 40.75 78.99 C 40.75 81.69 41.06 84.47 40.18 87.07 C 39.63 86.83 38.53 86.35 37.98 86.12 Z" />
<path fill="#9e8f6f" opacity="1.00" d=" M 52.27 78.02 L 53.05 77.38 C 53.02 82.29 54.22 87.11 53.95 92.03 C 54.31 97.59 52.45 103.33 54.31 108.75 L 56.70 106.56 C 56.43 107.78 56.05 109.02 54.97 109.80 C 54.44 109.64 53.40 109.31 52.88 109.15 C 52.24 107.97 51.24 106.81 51.28 105.41 C 52.43 96.31 50.81 87.07 52.27 78.02 Z" />
<path fill="#9e8f6f" opacity="1.00" d=" M 43.37 78.32 C 43.88 82.39 43.74 86.63 45.31 90.49 L 45.25 92.00 C 43.79 92.02 42.34 92.05 40.89 92.08 L 40.82 92.85 C 40.50 96.80 40.14 100.84 38.28 104.43 C 37.91 99.65 37.78 94.81 38.22 90.03 C 39.06 88.18 41.45 88.71 43.07 88.31 C 43.04 84.98 42.72 81.61 43.37 78.32 M 42.56 89.29 C 41.28 89.28 40.15 89.64 39.17 90.36 C 39.25 92.82 46.57 89.27 42.56 89.29 Z" />
<path fill="#9e8f6f" opacity="1.00" d=" M 148.02 103.59 C 147.87 99.20 147.44 94.70 148.76 90.43 C 149.13 94.97 149.12 99.55 148.88 104.09 C 148.88 106.67 145.65 108.12 143.45 107.62 C 139.26 105.20 141.59 99.47 141.01 95.56 C 141.72 95.62 143.14 95.72 143.85 95.77 C 143.99 98.50 144.03 101.23 144.00 103.96 C 144.49 103.92 145.47 103.82 145.96 103.78 C 146.48 103.73 147.51 103.63 148.02 103.59 M 141.94 105.08 L 143.12 105.18 C 142.96 102.38 142.91 99.57 142.62 96.78 C 142.08 99.51 141.97 102.30 141.94 105.08 M 143.12 105.18 L 143.12 105.78 C 143.56 105.87 144.43 106.06 144.87 106.16 C 147.10 105.40 143.87 103.84 143.12 105.18 Z" />
<path fill="#9e8f6f" opacity="1.00" d=" M 154.73 91.14 C 157.74 91.04 160.76 91.28 163.78 91.26 C 163.76 91.86 163.73 93.07 163.71 93.67 C 160.71 93.93 157.68 94.26 154.67 93.89 L 153.90 92.67 C 156.03 92.74 158.22 92.99 160.32 92.40 C 158.16 92.21 155.98 92.26 153.82 92.28 L 154.73 91.14 Z" />
<path fill="#9e8f6f" opacity="1.00" d=" M 104.79 93.92 C 105.02 92.49 105.76 91.98 106.99 92.39 C 107.07 93.71 106.34 94.22 104.79 93.92 Z" />
</g>
<g id="#7c7057ff">
<path fill="#7c7057" opacity="1.00" d=" M 43.45 77.07 C 43.22 76.11 42.95 75.15 42.71 74.19 C 44.95 73.91 45.71 76.24 45.91 77.91 C 46.07 82.38 46.17 86.88 45.64 91.33 L 45.31 90.49 C 43.74 86.63 43.88 82.39 43.37 78.32 L 43.93 77.28 L 43.45 77.07 Z" />
</g>
<g id="#9d8e6eff">
<path fill="#9d8e6e" opacity="1.00" d=" M 50.86 74.24 C 51.43 74.94 52.00 75.64 52.56 76.34 L 52.27 78.02 C 50.81 87.07 52.43 96.31 51.28 105.41 C 50.56 95.04 51.35 84.63 50.86 74.24 Z" />
</g>
<g id="#2a261dff">
<path fill="#2a261d" opacity="1.00" d=" M 142.18 74.90 C 143.49 74.47 144.99 74.75 146.02 75.68 C 145.21 75.79 143.59 76.00 142.79 76.11 L 142.17 75.49 L 142.18 74.90 Z" />
</g>
<g id="#265c11ff">
<path fill="#265c11" opacity="1.00" d=" M 94.04 75.16 C 96.77 77.17 98.40 80.03 98.40 83.47 C 96.36 83.64 94.71 84.95 93.01 85.95 C 92.39 85.57 91.77 85.19 91.16 84.82 C 92.89 84.22 94.36 83.20 95.27 81.59 C 94.18 81.49 93.08 81.41 91.99 81.32 C 92.31 80.66 92.63 80.00 92.95 79.35 C 93.91 79.63 94.87 79.91 95.83 80.20 C 94.88 78.66 94.21 76.97 94.04 75.16 Z" />
</g>
<g id="#736850ff">
<path fill="#736850" opacity="1.00" d=" M 142.17 75.49 L 142.79 76.11 C 142.92 80.57 142.52 85.06 143.30 89.49 L 143.94 88.40 C 145.88 87.93 147.74 88.74 148.76 90.43 C 147.44 94.70 147.87 99.20 148.02 103.59 C 147.51 103.63 146.48 103.73 145.96 103.78 C 146.18 99.87 145.60 95.89 146.27 92.03 C 146.37 91.77 146.56 91.25 146.65 90.99 C 147.32 89.12 144.22 89.49 143.84 90.82 C 143.62 91.09 143.20 91.64 142.98 91.92 C 142.27 91.32 141.65 90.63 141.05 89.93 C 142.94 85.33 141.97 80.31 142.17 75.49 Z" />
</g>
<g id="#3e4911ff">
<path fill="#3e4911" opacity="1.00" d=" M 77.44 84.64 C 77.42 83.07 77.48 81.51 77.61 79.95 C 78.31 79.92 79.69 79.85 80.38 79.82 C 80.08 80.24 79.48 81.10 79.19 81.52 C 80.74 82.00 82.29 82.49 83.88 82.88 C 84.43 83.72 85.00 84.57 85.56 85.41 C 84.50 86.04 83.43 86.67 82.37 87.31 C 83.92 87.49 85.48 87.64 87.05 87.75 C 85.85 88.95 84.68 90.18 83.54 91.43 C 83.78 91.84 84.25 92.64 84.49 93.04 C 84.90 93.77 85.70 95.24 86.11 95.97 C 83.36 95.01 81.60 92.63 80.13 90.26 C 80.52 88.90 80.91 87.54 81.29 86.18 C 80.75 85.97 79.68 85.56 79.15 85.35 C 78.72 85.17 77.87 84.82 77.44 84.64 Z" />
</g>
<g id="#1e6412ff">
<path fill="#1e6412" opacity="1.00" d=" M 84.80 82.74 C 85.38 82.61 86.56 82.36 87.14 82.23 C 88.41 84.02 88.37 86.19 88.73 88.25 C 89.73 88.47 90.75 88.59 91.75 88.79 C 91.90 89.03 92.19 89.50 92.34 89.73 C 89.48 90.20 86.76 91.22 84.49 93.04 C 84.25 92.64 83.78 91.84 83.54 91.43 C 84.68 90.18 85.85 88.95 87.05 87.75 C 85.48 87.64 83.92 87.49 82.37 87.31 C 83.43 86.67 84.50 86.04 85.56 85.41 C 85.00 84.57 84.43 83.72 83.88 82.88 L 84.80 82.74 Z" />
</g>
<g id="#1c3911ff">
<path fill="#1c3911" opacity="1.00" d=" M 79.15 85.35 C 79.68 85.56 80.75 85.97 81.29 86.18 C 80.91 87.54 80.52 88.90 80.13 90.26 C 79.05 89.34 77.95 88.46 76.81 87.62 C 77.59 86.86 78.37 86.11 79.15 85.35 Z" />
</g>
<g id="#695f49ff">
<path fill="#695f49" opacity="1.00" d=" M 22.95 89.70 C 22.49 85.92 27.23 87.27 29.61 86.92 C 29.92 87.41 30.54 88.39 30.85 88.88 C 28.20 88.87 25.52 88.94 22.95 89.70 Z" />
</g>
<g id="#9a8b6cff">
<path fill="#9a8b6c" opacity="1.00" d=" M 29.61 86.92 C 30.40 86.98 31.97 87.09 32.76 87.15 C 32.77 87.83 32.78 89.18 32.79 89.86 C 29.52 90.01 26.21 90.25 22.95 89.70 C 25.52 88.94 28.20 88.87 30.85 88.88 C 30.54 88.39 29.92 87.41 29.61 86.92 Z" />
</g>
<g id="#62a744ff">
<path fill="#62a744" opacity="1.00" d=" M 92.76 91.07 C 94.46 89.32 96.61 89.49 98.63 90.51 C 99.08 89.91 99.98 88.72 100.43 88.12 C 101.77 90.27 100.57 92.39 99.55 94.34 C 98.98 95.73 98.61 97.20 98.38 98.69 C 98.12 98.40 97.58 97.82 97.31 97.53 C 97.29 97.10 97.26 96.24 97.24 95.80 C 97.20 95.02 97.14 93.45 97.11 92.66 C 95.85 93.53 94.61 94.41 93.38 95.31 C 92.29 95.34 91.21 95.33 90.13 95.31 L 90.23 94.07 C 91.04 93.05 91.90 92.06 92.76 91.07 Z" />
</g>
<g id="#437f2cff">
<path fill="#437f2c" opacity="1.00" d=" M 84.49 93.04 C 86.76 91.22 89.48 90.20 92.34 89.73 C 92.44 90.07 92.65 90.74 92.76 91.07 C 91.90 92.06 91.04 93.05 90.23 94.07 C 90.10 93.61 89.86 92.68 89.74 92.21 C 88.89 93.24 88.07 94.28 87.15 95.25 L 86.11 95.97 C 85.70 95.24 84.90 93.77 84.49 93.04 Z" />
</g>
<g id="#3d382aff">
<path fill="#3d382a" opacity="1.00" d=" M 143.84 90.82 C 144.22 89.49 147.32 89.12 146.65 90.99 C 145.95 90.94 144.54 90.86 143.84 90.82 Z" />
</g>
<g id="#7b6f56ff">
<path fill="#7b6f56" opacity="1.00" d=" M 22.88 91.10 C 26.01 91.02 29.15 91.01 32.28 90.89 C 32.62 92.02 32.91 93.16 33.15 94.31 L 32.09 93.54 C 31.83 93.34 31.31 92.95 31.06 92.76 C 30.30 91.36 29.64 91.38 29.06 92.81 C 28.58 93.03 27.60 93.46 27.11 93.68 C 25.07 94.94 22.71 93.44 22.88 91.10 Z" />
</g>
<g id="#beac85ff">
<path fill="#beac85" opacity="1.00" d=" M 142.98 91.92 C 143.20 91.64 143.62 91.09 143.84 90.82 C 144.54 90.86 145.95 90.94 146.65 90.99 C 146.56 91.25 146.37 91.77 146.27 92.03 C 145.45 92.01 143.81 91.95 142.98 91.92 Z" />
</g>
<g id="#2f5b1cff">
<path fill="#2f5b1c" opacity="1.00" d=" M 89.74 92.21 C 89.86 92.68 90.10 93.61 90.23 94.07 L 90.13 95.31 C 88.99 96.12 87.86 96.94 86.73 97.77 C 89.33 99.58 89.03 102.59 88.71 105.35 C 88.42 104.70 87.83 103.40 87.54 102.74 C 87.30 102.42 86.83 101.78 86.59 101.46 C 85.57 100.13 85.16 98.47 84.59 96.92 C 85.61 96.59 86.46 96.03 87.15 95.25 C 88.07 94.28 88.89 93.24 89.74 92.21 Z" />
</g>
<g id="#a69674ff">
<path fill="#a69674" opacity="1.00" d=" M 27.11 93.68 C 27.60 93.46 28.58 93.03 29.06 92.81 C 29.56 92.80 30.56 92.77 31.06 92.76 C 31.31 92.95 31.83 93.34 32.09 93.54 C 30.77 94.63 28.55 94.44 27.11 93.68 Z" />
</g>
<g id="#776c53ff">
<path fill="#776c53" opacity="1.00" d=" M 38.28 104.43 C 40.14 100.84 40.50 96.80 40.82 92.85 C 40.86 96.16 40.96 99.47 41.03 102.78 C 42.64 103.29 44.25 103.81 45.86 104.33 C 45.90 105.59 45.94 106.85 45.96 108.12 C 44.93 107.86 43.90 107.63 42.86 107.42 C 43.35 107.26 44.32 106.94 44.81 106.78 C 44.60 105.19 42.00 106.01 41.03 106.60 L 40.38 106.93 C 39.68 106.09 38.98 105.26 38.28 104.43 M 40.16 104.07 C 40.41 107.33 43.13 102.46 40.16 104.07 Z" />
</g>
<g id="#394b13ff">
<path fill="#394b13" opacity="1.00" d=" M 93.38 95.31 C 94.61 94.41 95.85 93.53 97.11 92.66 C 97.14 93.45 97.20 95.02 97.24 95.80 C 95.35 97.54 93.59 99.40 91.89 101.32 C 92.40 101.35 93.42 101.40 93.92 101.42 C 92.97 103.46 92.09 105.54 91.07 107.55 C 90.66 107.88 90.25 108.21 89.83 108.54 C 88.59 108.85 87.35 109.17 86.09 109.41 L 85.70 109.44 C 86.00 106.78 86.29 104.12 86.59 101.46 C 86.83 101.78 87.30 102.42 87.54 102.74 C 87.83 103.40 88.42 104.70 88.71 105.35 L 88.78 106.49 C 90.39 102.80 91.26 98.80 93.38 95.31 Z" />
</g>
<g id="#463411ff">
<path fill="#463411" opacity="1.00" d=" M 98.38 98.69 C 98.61 97.20 98.98 95.73 99.55 94.34 C 100.63 95.85 102.26 96.48 104.08 96.57 C 104.26 95.91 104.61 94.58 104.79 93.92 C 105.45 95.84 107.37 95.81 109.04 96.06 C 108.48 99.73 106.69 103.28 107.29 107.06 C 107.86 108.88 109.16 110.35 110.16 111.95 C 111.12 111.75 112.08 111.54 113.05 111.34 C 114.51 113.99 112.30 116.93 112.80 119.79 C 113.36 119.62 114.47 119.29 115.03 119.13 C 115.10 120.76 115.33 122.38 115.87 123.93 C 114.86 124.85 113.83 125.76 112.80 126.65 C 110.39 125.78 109.03 127.36 108.27 129.47 L 107.58 129.60 C 106.91 129.72 105.57 129.96 104.90 130.09 C 103.61 130.32 102.36 130.71 101.13 131.13 C 100.69 130.80 99.81 130.15 99.37 129.83 C 97.50 128.91 95.57 128.12 93.68 127.26 C 95.13 125.26 96.89 123.31 99.58 123.40 C 100.09 121.18 100.42 118.93 100.63 116.67 C 99.68 117.94 98.74 119.21 97.80 120.48 C 97.21 120.08 96.62 119.69 96.03 119.30 C 93.32 120.92 90.12 123.86 87.02 121.32 C 86.89 119.31 86.73 117.30 86.59 115.29 C 88.06 113.25 89.13 110.96 89.83 108.54 C 90.25 108.21 90.66 107.88 91.07 107.55 C 92.55 106.55 94.01 105.52 95.48 104.50 C 95.83 104.57 96.53 104.70 96.88 104.77 C 96.80 105.33 96.63 106.46 96.55 107.02 C 96.73 107.20 97.09 107.57 97.26 107.76 C 97.86 106.61 98.48 105.48 99.12 104.36 C 100.79 105.22 102.55 106.16 102.91 108.21 C 100.35 108.90 97.82 109.79 95.68 111.39 C 96.38 111.08 97.77 110.46 98.47 110.15 C 98.51 110.81 98.61 112.13 98.66 112.80 C 99.05 111.83 99.45 110.86 99.85 109.90 C 102.26 109.52 104.46 108.53 105.52 106.19 C 105.12 105.04 104.73 103.88 104.34 102.72 C 104.86 101.50 105.37 100.28 105.89 99.06 C 104.71 99.58 103.53 100.10 102.36 100.62 C 102.01 100.26 101.33 99.52 100.99 99.16 C 100.54 99.23 99.63 99.38 99.18 99.45 C 98.98 99.26 98.58 98.88 98.38 98.69 Z" />
</g>
<g id="#4b7429ff">
<path fill="#4b7429" opacity="1.00" d=" M 90.13 95.31 C 91.21 95.33 92.29 95.34 93.38 95.31 C 91.26 98.80 90.39 102.80 88.78 106.49 L 88.71 105.35 C 89.03 102.59 89.33 99.58 86.73 97.77 C 87.86 96.94 88.99 96.12 90.13 95.31 Z" />
</g>
<g id="#6b6321ff">
<path fill="#6b6321" opacity="1.00" d=" M 91.89 101.32 C 93.59 99.40 95.35 97.54 97.24 95.80 C 97.26 96.24 97.29 97.10 97.31 97.53 C 97.30 99.41 97.22 101.29 97.17 103.17 C 97.46 102.60 98.06 101.47 98.35 100.90 C 99.16 101.27 99.96 101.64 100.77 102.02 C 100.21 102.79 99.65 103.56 99.12 104.36 C 98.48 105.48 97.86 106.61 97.26 107.76 C 97.09 107.57 96.73 107.20 96.55 107.02 C 96.63 106.46 96.80 105.33 96.88 104.77 C 96.53 104.70 95.83 104.57 95.48 104.50 C 94.01 105.52 92.55 106.55 91.07 107.55 C 92.09 105.54 92.97 103.46 93.92 101.42 C 93.42 101.40 92.40 101.35 91.89 101.32 Z" />
</g>
<g id="#6e634cff">
<path fill="#6e634c" opacity="1.00" d=" M 141.94 105.08 C 141.97 102.30 142.08 99.51 142.62 96.78 C 142.91 99.57 142.96 102.38 143.12 105.18 L 141.94 105.08 Z" />
</g>
<g id="#97892cff">
<path fill="#97892c" opacity="1.00" d=" M 97.31 97.53 C 97.58 97.82 98.12 98.40 98.38 98.69 C 98.58 98.88 98.98 99.26 99.18 99.45 C 99.63 99.38 100.54 99.23 100.99 99.16 C 101.33 99.52 102.01 100.26 102.36 100.62 C 103.53 100.10 104.71 99.58 105.89 99.06 C 105.37 100.28 104.86 101.50 104.34 102.72 C 104.73 103.88 105.12 105.04 105.52 106.19 C 104.46 108.53 102.26 109.52 99.85 109.90 C 99.45 110.86 99.05 111.83 98.66 112.80 C 98.61 112.13 98.51 110.81 98.47 110.15 C 97.77 110.46 96.38 111.08 95.68 111.39 C 97.82 109.79 100.35 108.90 102.91 108.21 C 102.55 106.16 100.79 105.22 99.12 104.36 C 99.65 103.56 100.21 102.79 100.77 102.02 C 99.96 101.64 99.16 101.27 98.35 100.90 C 98.06 101.47 97.46 102.60 97.17 103.17 C 97.22 101.29 97.30 99.41 97.31 97.53 Z" />
</g>
<g id="#132f0fff">
<path fill="#132f0f" opacity="1.00" d=" M 77.42 101.28 C 79.41 100.16 80.11 104.70 78.13 104.91 C 76.71 104.44 76.51 102.30 77.42 101.28 Z" />
</g>
<g id="#193411ff">
<path fill="#193411" opacity="1.00" d=" M 81.10 113.08 C 81.21 109.71 81.10 106.33 81.31 102.96 C 82.56 105.19 83.08 108.37 85.70 109.44 L 86.09 109.41 C 87.35 109.17 88.59 108.85 89.83 108.54 C 89.13 110.96 88.06 113.25 86.59 115.29 C 86.73 117.30 86.89 119.31 87.02 121.32 C 83.08 122.83 79.15 125.14 74.75 124.35 C 73.00 124.23 71.26 124.02 69.51 123.86 C 70.97 122.97 73.08 122.53 73.71 120.75 C 73.50 119.77 73.25 118.81 72.96 117.85 C 73.77 117.88 75.39 117.94 76.20 117.97 C 77.31 116.14 76.19 114.33 75.26 112.71 C 75.82 112.12 76.38 111.53 76.94 110.93 C 77.19 109.57 77.06 107.83 78.82 107.57 C 78.76 108.78 77.40 110.41 78.62 111.42 C 79.42 112.01 80.24 112.57 81.10 113.08 Z" />
</g>
<g id="#b8a781ff">
<path fill="#b8a781" opacity="1.00" d=" M 41.03 106.60 C 42.00 106.01 44.60 105.19 44.81 106.78 C 44.32 106.94 43.35 107.26 42.86 107.42 C 42.41 107.22 41.49 106.81 41.03 106.60 Z" />
</g>
<g id="#183211ff">
<path fill="#183211" opacity="1.00" d=" M 70.00 108.25 C 70.67 108.18 72.01 108.04 72.68 107.97 C 72.68 109.32 72.66 110.68 72.63 112.04 C 71.19 111.22 70.34 109.85 70.00 108.25 Z" />
</g>
<g id="#968769ff">
<path fill="#968769" opacity="1.00" d=" M 133.14 107.99 C 134.63 107.70 135.34 108.33 135.27 109.86 C 133.54 110.31 132.83 109.68 133.14 107.99 Z" />
</g>
<g id="#2a3411ff">
<path fill="#2a3411" opacity="1.00" d=" M 97.80 120.48 C 98.74 119.21 99.68 117.94 100.63 116.67 C 100.42 118.93 100.09 121.18 99.58 123.40 C 96.89 123.31 95.13 125.26 93.68 127.26 C 95.57 128.12 97.50 128.91 99.37 129.83 C 97.94 130.08 96.52 130.37 95.09 130.58 C 89.97 130.21 85.19 127.38 79.93 127.87 C 78.11 126.84 76.40 125.64 74.75 124.35 C 79.15 125.14 83.08 122.83 87.02 121.32 C 90.12 123.86 93.32 120.92 96.03 119.30 C 96.62 119.69 97.21 120.08 97.80 120.48 Z" />
</g>
<g id="#245c1eff">
<path fill="#245c1e" opacity="1.00" d=" M 47.26 128.07 C 48.94 128.33 51.07 128.37 51.76 130.29 C 54.13 134.69 52.20 139.56 51.13 143.99 C 51.56 147.73 52.29 151.46 51.96 155.24 C 51.51 154.90 50.60 154.20 50.15 153.85 C 49.69 150.56 49.48 147.22 48.50 144.03 C 48.40 146.90 48.23 149.76 47.91 152.62 C 45.04 151.74 46.31 148.24 46.21 146.03 C 47.01 140.07 47.10 134.07 47.26 128.07 M 49.23 131.29 C 48.96 134.31 48.91 137.35 49.16 140.37 C 50.78 137.80 51.13 133.82 49.23 131.29 Z" />
<path fill="#245c1e" opacity="1.00" d=" M 143.21 128.18 C 144.79 128.14 146.36 128.10 147.94 128.04 C 148.04 130.26 149.88 134.38 146.95 135.25 C 146.56 133.60 146.86 131.48 145.18 130.45 C 145.06 132.48 145.03 134.52 145.04 136.56 C 146.01 136.34 146.99 136.12 147.98 135.91 C 149.28 138.94 149.27 142.44 148.52 145.61 C 147.89 147.14 146.09 149.18 144.36 148.54 C 142.88 146.57 142.69 143.61 143.62 141.36 C 145.89 140.92 145.25 144.30 146.78 145.27 C 146.93 143.46 146.99 141.64 147.05 139.83 C 145.75 139.49 144.46 139.15 143.17 138.81 C 142.96 135.27 142.93 131.72 143.21 128.18 Z" />
<path fill="#245c1e" opacity="1.00" d=" M 133.88 128.97 C 135.53 129.24 138.02 128.12 138.86 130.16 C 139.70 132.76 139.64 135.54 139.18 138.21 C 136.27 137.16 137.95 133.45 136.07 131.65 C 135.93 134.15 135.98 136.66 136.02 139.16 C 137.47 139.39 139.45 139.34 139.85 141.16 C 140.19 144.76 140.15 148.40 139.92 152.00 C 139.66 154.18 135.48 155.95 134.90 152.97 C 134.38 150.41 133.33 147.20 135.21 144.99 C 135.52 145.31 136.15 145.94 136.46 146.25 C 136.83 147.96 136.44 150.09 137.90 151.35 C 138.14 148.64 138.11 145.92 138.05 143.20 C 136.73 142.91 134.91 143.32 134.19 141.83 C 133.85 137.56 133.15 133.24 133.88 128.97 Z" />
<path fill="#245c1e" opacity="1.00" d=" M 66.41 130.26 C 67.55 129.39 69.72 129.71 70.63 130.85 C 69.38 131.12 68.13 131.39 66.88 131.66 C 68.27 131.65 69.65 131.65 71.04 131.65 C 72.48 136.60 72.47 142.01 70.91 146.93 C 70.67 148.39 69.18 148.88 68.05 149.49 C 67.53 153.75 67.20 158.04 66.87 162.32 C 66.43 161.95 65.55 161.22 65.11 160.85 C 64.82 156.15 65.18 151.44 65.64 146.76 C 66.48 146.82 68.14 146.94 68.98 146.99 L 69.02 145.98 C 68.25 146.04 66.70 146.16 65.93 146.23 C 66.24 140.91 65.74 135.55 66.41 130.26 M 68.40 134.03 C 68.00 137.80 67.85 141.59 68.12 145.37 C 69.70 143.28 69.76 140.49 70.11 138.00 C 70.08 136.58 70.25 134.33 68.40 134.03 Z" />
<path fill="#245c1e" opacity="1.00" d=" M 114.17 129.90 C 114.75 130.07 115.91 130.42 116.49 130.59 C 117.46 134.69 118.07 138.87 118.63 143.04 C 118.89 138.62 117.92 134.26 117.94 129.84 C 118.49 129.92 119.57 130.07 120.11 130.14 C 120.82 134.71 120.98 139.36 121.00 143.98 C 120.92 150.07 122.01 156.10 122.05 162.19 C 118.15 162.66 119.36 157.75 118.68 155.38 C 117.26 157.68 118.25 160.61 118.03 163.16 C 117.54 163.11 116.56 163.00 116.07 162.95 C 114.62 155.73 115.29 148.30 115.04 140.99 C 114.75 137.29 114.26 133.61 114.17 129.90 Z" />
</g>
<g id="#1c4818ff">
<path fill="#1c4818" opacity="1.00" d=" M 124.12 129.12 C 126.41 129.05 129.24 128.25 130.52 130.76 C 128.57 130.92 126.62 131.09 124.67 131.26 C 124.71 133.54 124.80 135.81 124.91 138.09 C 125.31 137.60 126.09 136.63 126.48 136.14 C 126.76 138.07 127.06 140.03 126.80 141.99 L 125.86 142.10 C 127.01 142.62 128.16 143.14 129.31 143.66 C 127.92 144.02 126.53 144.38 125.14 144.75 L 124.39 144.95 C 123.96 139.68 123.81 134.40 124.12 129.12 Z" />
</g>
<g id="#0d1e0cff">
<path fill="#0d1e0c" opacity="1.00" d=" M 40.10 129.63 C 42.27 131.32 42.08 134.81 40.13 136.60 C 39.99 134.28 39.96 131.95 40.10 129.63 Z" />
</g>
<g id="#0d1f0bff">
<path fill="#0d1f0b" opacity="1.00" d=" M 58.32 130.10 C 59.60 129.25 60.35 129.47 60.56 130.77 C 59.27 131.61 58.53 131.39 58.32 130.10 Z" />
</g>
<g id="#1b4617ff">
<path fill="#1b4617" opacity="1.00" d=" M 85.10 130.15 C 86.38 130.06 87.67 129.96 88.96 129.87 C 92.69 136.62 90.97 144.75 90.09 152.01 C 90.90 156.81 91.38 161.65 91.43 166.52 C 90.87 166.38 89.74 166.10 89.17 165.96 C 88.59 161.22 88.26 156.45 87.42 151.74 C 86.74 156.47 87.22 161.25 87.05 166.00 C 86.53 166.02 85.50 166.05 84.98 166.07 C 84.96 154.10 84.80 142.12 85.10 130.15 M 87.33 134.18 C 87.56 138.58 87.32 142.98 87.08 147.37 C 90.43 144.59 88.51 139.65 89.00 135.90 C 88.44 135.32 87.89 134.75 87.33 134.18 Z" />
</g>
<g id="#33812bff">
<path fill="#33812b" opacity="1.00" d=" M 97.70 133.39 C 98.80 132.57 99.94 131.81 101.13 131.13 C 101.00 131.74 100.74 132.95 100.61 133.56 C 99.88 133.69 98.43 133.95 97.71 134.08 C 97.70 133.91 97.70 133.56 97.70 133.39 Z" />
</g>
<g id="#2a6a24ff">
<path fill="#2a6a24" opacity="1.00" d=" M 124.67 131.26 C 126.62 131.09 128.57 130.92 130.52 130.76 C 129.91 132.89 127.72 132.77 125.97 133.11 C 126.10 133.87 126.35 135.38 126.48 136.14 C 126.09 136.63 125.31 137.60 124.91 138.09 C 124.80 135.81 124.71 133.54 124.67 131.26 Z" />
</g>
<g id="#2f7728ff">
<path fill="#2f7728" opacity="1.00" d=" M 105.76 133.01 C 106.29 132.98 107.36 132.93 107.89 132.90 L 107.67 133.67 C 106.63 136.59 106.90 139.71 107.20 142.73 C 107.22 144.27 106.72 145.73 106.21 147.17 C 105.67 142.47 105.79 137.73 105.76 133.01 Z" />
</g>
<g id="#0a1609ff">
<path fill="#0a1609" opacity="1.00" d=" M 68.40 134.03 C 70.25 134.33 70.08 136.58 70.11 138.00 C 69.76 140.49 69.70 143.28 68.12 145.37 C 67.85 141.59 68.00 137.80 68.40 134.03 Z" />
</g>
<g id="#0d1f0cff">
<path fill="#0d1f0c" opacity="1.00" d=" M 87.33 134.18 C 87.89 134.75 88.44 135.32 89.00 135.90 C 88.51 139.65 90.43 144.59 87.08 147.37 C 87.32 142.98 87.56 138.58 87.33 134.18 Z" />
</g>
<g id="#2e7327ff">
<path fill="#2e7327" opacity="1.00" d=" M 125.86 142.10 L 126.80 141.99 C 127.61 141.95 129.22 141.85 130.03 141.80 C 130.02 142.55 130.00 144.04 129.99 144.79 C 128.98 145.15 127.97 145.51 126.97 145.87 C 127.00 148.43 127.04 150.99 127.12 153.56 C 126.82 153.91 126.21 154.61 125.91 154.96 C 125.75 151.88 125.56 148.81 125.24 145.75 L 125.14 144.75 C 126.53 144.38 127.92 144.02 129.31 143.66 C 128.16 143.14 127.01 142.62 125.86 142.10 Z" />
</g>
<g id="#2c7025ff">
<path fill="#2c7025" opacity="1.00" d=" M 97.55 146.39 C 97.54 146.24 97.53 145.94 97.52 145.79 C 98.40 145.89 100.16 146.09 101.04 146.19 C 101.00 147.34 100.96 148.49 100.93 149.64 C 100.08 149.80 98.39 150.10 97.54 150.25 C 97.38 149.76 97.05 148.79 96.89 148.30 C 97.77 148.17 99.52 147.89 100.40 147.76 C 99.44 147.31 98.49 146.86 97.55 146.39 Z" />
<path fill="#2c7025" opacity="1.00" d=" M 128.65 154.97 C 130.68 154.14 132.34 156.05 131.07 157.82 C 129.35 158.57 126.89 160.88 125.22 159.05 C 126.83 158.28 128.45 157.54 130.07 156.81 C 129.71 156.35 129.01 155.43 128.65 154.97 Z" />
</g>
<g id="#1d4b19ff">
<path fill="#1d4b19" opacity="1.00" d=" M 125.24 145.75 C 125.56 148.81 125.75 151.88 125.91 154.96 C 126.21 154.61 126.82 153.91 127.12 153.56 L 127.35 153.29 C 127.67 153.71 128.33 154.55 128.65 154.97 C 129.01 155.43 129.71 156.35 130.07 156.81 C 128.45 157.54 126.83 158.28 125.22 159.05 C 124.84 154.62 125.03 150.18 125.24 145.75 Z" />
</g>
<g id="#327e2aff">
<path fill="#327e2a" opacity="1.00" d=" M 109.64 161.73 C 109.79 161.77 110.08 161.84 110.22 161.88 C 110.75 164.00 108.00 166.31 106.20 164.68 C 107.34 163.70 108.48 162.70 109.64 161.73 Z" />
</g>
</svg>
